# xmcd
#
# Track frame offsets:
#	150
#	9489
#	14535
#	24103
#	28607
#	33240
#	37548
#	45137
#	50789
#	54482
#	60880
#	64608
#	67476
#	78284
#	83324
#	87561
#	91882
#	98541
#	104726
#	115146
#	119802
#	126668
#	131873
#	136336
#	143761
#	148427
#	154288
#	161564
#	172568
#	176556
#	183742
#	192334
#	196614
#	207009
#	213488
#	222666
#	232222
#	239966
#	247485
#	251272
#	263934
#
# Disc length: 3844 seconds
#
# Revision: 0
# Processed by: cddbd v1.5.2PL0 Copyright (c) Steve Scherf et al.
# Submitted via: dBpowerAMP V4.0
#
DISCID=580f0229
DTITLE=lalalalala - lalalalala
DYEAR=2013
DGENRE=Acoustic
TTITLE0=lalalalalala
TTITLE1=lalalalla
TTITLE2=lalalalalalala
TTITLE3=lalalal
TTITLE4=lalalalalalla
TTITLE5=lalalal
TTITLE6=6541321
TTITLE7=3621321
TTITLE8=6521321
TTITLE9=131
TTITLE10=654132
TTITLE11=641321
TTITLE12=61321
TTITLE13=61321
TTITLE14=6321321
TTITLE15=6321321
TTITLE16=61321
TTITLE17=3213
TTITLE18=85465132
TTITLE19=65498465
TTITLE20=6415123
TTITLE21=854165
TTITLE22=65411321
TTITLE23=6561
TTITLE24=313232
TTITLE25=6432132
TTITLE26=423413214
TTITLE27=5462132
TTITLE28=54321321
TTITLE29=6213213
TTITLE30=3213213
TTITLE31=32131321
TTITLE32=3213213
TTITLE33=216549846
TTITLE34=6485461
TTITLE35=256546
TTITLE36=5463132
TTITLE37=54613
TTITLE38=53213
TTITLE39=163213
TTITLE40=5321
EXTD=lalalalalala
EXTT0=
EXTT1=
EXTT2=
EXTT3=
EXTT4=
EXTT5=
EXTT6=
EXTT7=
EXTT8=
EXTT9=
EXTT10=
EXTT11=
EXTT12=
EXTT13=
EXTT14=
EXTT15=
EXTT16=
EXTT17=
EXTT18=
EXTT19=
EXTT20=
EXTT21=
EXTT22=
EXTT23=
EXTT24=
EXTT25=
EXTT26=
EXTT27=
EXTT28=
EXTT29=
EXTT30=
EXTT31=
EXTT32=
EXTT33=
EXTT34=
EXTT35=
EXTT36=
EXTT37=
EXTT38=
EXTT39=
EXTT40=
PLAYORDER=
